<mxfile host="app.diagrams.net" agent="Mozilla/5.0 (Windows NT 10.0; Win64; x64; rv:130.0) Gecko/20100101 Firefox/130.0" version="24.7.15">
  <diagram name="Page-1" id="ST8ZATNRGdcIe8sIJiNc">
    <mxGraphModel dx="1793" dy="943" grid="1" gridSize="10" guides="1" tooltips="1" connect="1" arrows="1" fold="1" page="1" pageScale="1" pageWidth="850" pageHeight="1100" background="#ffffff" math="0" shadow="0">
      <root>
        <mxCell id="0" />
        <mxCell id="1" parent="0" />
        <mxCell id="_CKKPmwxhbN_D0Wwm0yA-6" value="" style="rounded=0;whiteSpace=wrap;html=1;" vertex="1" parent="1">
          <mxGeometry x="65" y="275" width="120" height="170" as="geometry" />
        </mxCell>
        <mxCell id="_CKKPmwxhbN_D0Wwm0yA-1" value="&lt;div&gt;Doctor&lt;/div&gt;&lt;div&gt;&lt;br&gt;&lt;/div&gt;" style="shape=umlActor;verticalLabelPosition=bottom;verticalAlign=top;html=1;outlineConnect=0;" vertex="1" parent="1">
          <mxGeometry x="110" y="330" width="30" height="60" as="geometry" />
        </mxCell>
        <mxCell id="_CKKPmwxhbN_D0Wwm0yA-7" value="Primary Actor" style="rounded=0;whiteSpace=wrap;html=1;" vertex="1" parent="1">
          <mxGeometry x="65" y="275" width="120" height="45" as="geometry" />
        </mxCell>
        <mxCell id="_CKKPmwxhbN_D0Wwm0yA-9" value="" style="rounded=0;whiteSpace=wrap;html=1;" vertex="1" parent="1">
          <mxGeometry x="200" y="80" width="440" height="650" as="geometry" />
        </mxCell>
        <mxCell id="_CKKPmwxhbN_D0Wwm0yA-10" value="Doctor Use Case Diagram" style="rounded=0;whiteSpace=wrap;html=1;" vertex="1" parent="1">
          <mxGeometry x="200" y="80" width="440" height="60" as="geometry" />
        </mxCell>
        <mxCell id="_CKKPmwxhbN_D0Wwm0yA-11" value="Schedule Follow-up" style="ellipse;whiteSpace=wrap;html=1;" vertex="1" parent="1">
          <mxGeometry x="510" y="570" width="120" height="80" as="geometry" />
        </mxCell>
        <mxCell id="_CKKPmwxhbN_D0Wwm0yA-12" value="Prescribe Medication" style="ellipse;whiteSpace=wrap;html=1;" vertex="1" parent="1">
          <mxGeometry x="290" y="275" width="120" height="80" as="geometry" />
        </mxCell>
        <mxCell id="_CKKPmwxhbN_D0Wwm0yA-13" value="Log in" style="ellipse;whiteSpace=wrap;html=1;" vertex="1" parent="1">
          <mxGeometry x="290" y="380" width="120" height="80" as="geometry" />
        </mxCell>
        <mxCell id="_CKKPmwxhbN_D0Wwm0yA-14" value="Log out" style="ellipse;whiteSpace=wrap;html=1;" vertex="1" parent="1">
          <mxGeometry x="287" y="490" width="120" height="80" as="geometry" />
        </mxCell>
        <mxCell id="_CKKPmwxhbN_D0Wwm0yA-15" value="Schedule Tests" style="ellipse;whiteSpace=wrap;html=1;" vertex="1" parent="1">
          <mxGeometry x="290" y="600" width="120" height="80" as="geometry" />
        </mxCell>
        <mxCell id="_CKKPmwxhbN_D0Wwm0yA-16" value="Refer Patient to Specialists" style="ellipse;whiteSpace=wrap;html=1;" vertex="1" parent="1">
          <mxGeometry x="287" y="160" width="120" height="80" as="geometry" />
        </mxCell>
        <mxCell id="_CKKPmwxhbN_D0Wwm0yA-17" value="Check Patient Medical History" style="ellipse;whiteSpace=wrap;html=1;" vertex="1" parent="1">
          <mxGeometry x="480" y="220" width="120" height="80" as="geometry" />
        </mxCell>
        <mxCell id="_CKKPmwxhbN_D0Wwm0yA-18" value="" style="endArrow=none;html=1;rounded=0;entryX=0;entryY=0.5;entryDx=0;entryDy=0;" edge="1" parent="1" target="_CKKPmwxhbN_D0Wwm0yA-16">
          <mxGeometry width="50" height="50" relative="1" as="geometry">
            <mxPoint x="140" y="350" as="sourcePoint" />
            <mxPoint x="190" y="300" as="targetPoint" />
          </mxGeometry>
        </mxCell>
        <mxCell id="_CKKPmwxhbN_D0Wwm0yA-19" value="" style="endArrow=none;html=1;rounded=0;entryX=0;entryY=0.5;entryDx=0;entryDy=0;" edge="1" parent="1" target="_CKKPmwxhbN_D0Wwm0yA-12">
          <mxGeometry width="50" height="50" relative="1" as="geometry">
            <mxPoint x="150" y="360" as="sourcePoint" />
            <mxPoint x="300" y="210" as="targetPoint" />
          </mxGeometry>
        </mxCell>
        <mxCell id="_CKKPmwxhbN_D0Wwm0yA-20" value="" style="endArrow=none;html=1;rounded=0;entryX=0;entryY=0.5;entryDx=0;entryDy=0;" edge="1" parent="1" target="_CKKPmwxhbN_D0Wwm0yA-13">
          <mxGeometry width="50" height="50" relative="1" as="geometry">
            <mxPoint x="160" y="370" as="sourcePoint" />
            <mxPoint x="300" y="325" as="targetPoint" />
          </mxGeometry>
        </mxCell>
        <mxCell id="_CKKPmwxhbN_D0Wwm0yA-21" value="" style="endArrow=none;html=1;rounded=0;entryX=0;entryY=0.5;entryDx=0;entryDy=0;exitX=1;exitY=0.3333333333333333;exitDx=0;exitDy=0;exitPerimeter=0;" edge="1" parent="1" source="_CKKPmwxhbN_D0Wwm0yA-1" target="_CKKPmwxhbN_D0Wwm0yA-14">
          <mxGeometry width="50" height="50" relative="1" as="geometry">
            <mxPoint x="170" y="380" as="sourcePoint" />
            <mxPoint x="300" y="430" as="targetPoint" />
          </mxGeometry>
        </mxCell>
        <mxCell id="_CKKPmwxhbN_D0Wwm0yA-22" value="" style="endArrow=none;html=1;rounded=0;entryX=0;entryY=0.5;entryDx=0;entryDy=0;" edge="1" parent="1" target="_CKKPmwxhbN_D0Wwm0yA-15">
          <mxGeometry width="50" height="50" relative="1" as="geometry">
            <mxPoint x="140" y="350" as="sourcePoint" />
            <mxPoint x="297" y="540" as="targetPoint" />
          </mxGeometry>
        </mxCell>
        <mxCell id="_CKKPmwxhbN_D0Wwm0yA-23" value="Update Patient Medical History" style="ellipse;whiteSpace=wrap;html=1;" vertex="1" parent="1">
          <mxGeometry x="480" y="320" width="120" height="80" as="geometry" />
        </mxCell>
        <mxCell id="_CKKPmwxhbN_D0Wwm0yA-24" value="" style="endArrow=none;dashed=1;html=1;dashPattern=1 3;strokeWidth=2;rounded=0;entryX=0;entryY=0.5;entryDx=0;entryDy=0;" edge="1" parent="1" target="_CKKPmwxhbN_D0Wwm0yA-17">
          <mxGeometry width="50" height="50" relative="1" as="geometry">
            <mxPoint x="410" y="320" as="sourcePoint" />
            <mxPoint x="460" y="270" as="targetPoint" />
          </mxGeometry>
        </mxCell>
        <mxCell id="_CKKPmwxhbN_D0Wwm0yA-25" value="" style="endArrow=none;dashed=1;html=1;dashPattern=1 3;strokeWidth=2;rounded=0;entryX=0;entryY=0.5;entryDx=0;entryDy=0;exitX=1;exitY=0.5;exitDx=0;exitDy=0;" edge="1" parent="1" source="_CKKPmwxhbN_D0Wwm0yA-12" target="_CKKPmwxhbN_D0Wwm0yA-23">
          <mxGeometry width="50" height="50" relative="1" as="geometry">
            <mxPoint x="420" y="330" as="sourcePoint" />
            <mxPoint x="490" y="270" as="targetPoint" />
          </mxGeometry>
        </mxCell>
        <mxCell id="_CKKPmwxhbN_D0Wwm0yA-26" value="" style="endArrow=none;dashed=1;html=1;dashPattern=1 3;strokeWidth=2;rounded=0;exitX=1;exitY=0.5;exitDx=0;exitDy=0;entryX=0;entryY=0.5;entryDx=0;entryDy=0;" edge="1" parent="1" source="_CKKPmwxhbN_D0Wwm0yA-15" target="_CKKPmwxhbN_D0Wwm0yA-11">
          <mxGeometry width="50" height="50" relative="1" as="geometry">
            <mxPoint x="425" y="630" as="sourcePoint" />
            <mxPoint x="475" y="580" as="targetPoint" />
          </mxGeometry>
        </mxCell>
        <mxCell id="_CKKPmwxhbN_D0Wwm0yA-27" value="&lt;div&gt;&amp;lt;&amp;lt;includes&amp;gt;&amp;gt;&lt;/div&gt;" style="text;html=1;align=center;verticalAlign=middle;whiteSpace=wrap;rounded=0;" vertex="1" parent="1">
          <mxGeometry x="425" y="580" width="60" height="30" as="geometry" />
        </mxCell>
        <mxCell id="_CKKPmwxhbN_D0Wwm0yA-28" value="&lt;div&gt;&amp;lt;&amp;lt;extends&amp;gt;&amp;gt;&lt;/div&gt;" style="text;html=1;align=center;verticalAlign=middle;whiteSpace=wrap;rounded=0;" vertex="1" parent="1">
          <mxGeometry x="410" y="230" width="60" height="30" as="geometry" />
        </mxCell>
        <mxCell id="_CKKPmwxhbN_D0Wwm0yA-29" value="&lt;div&gt;&amp;lt;&amp;lt;includes&amp;gt;&amp;gt;&lt;/div&gt;" style="text;html=1;align=center;verticalAlign=middle;whiteSpace=wrap;rounded=0;" vertex="1" parent="1">
          <mxGeometry x="410" y="353" width="60" height="30" as="geometry" />
        </mxCell>
      </root>
    </mxGraphModel>
  </diagram>
</mxfile>
